<svg xmlns="http://www.w3.org/2000/svg" xmlns:xlink="http://www.w3.org/1999/xlink"><symbol viewBox="0 0 24 24" fill="currentColor" id="captions"><path d="M18 11h-1.5v-.5h-2v3h2V13H18v1a1 1 0 0 1-1 1h-3a1 1 0 0 1-1-1v-4a1 1 0 0 1 1-1h3a1 1 0 0 1 1 1m-7 1H9.5v-.5h-2v3h2V13H11v1a1 1 0 0 1-1 1H7a1 1 0 0 1-1-1v-4a1 1 0 0 1 1-1h3a1 1 0 0 1 1 1m8-6H5c-1.11 0-2 .89-2 2v12a2 2 0 0 0 2 2h14a2 2 0 0 0 2-2V6a2 2 0 0 0-2-2Z"/></symbol><symbol viewBox="0 0 24 24" fill="currentColor" id="fullscreen-close"><path d="M5 16h3v3h2v-5H5v2zm3-8H5v2h5V5H8v3zm6 11h2v-3h3v-2h-5v5zm2-11V5h-2v5h5V8h-3z"/></symbol><symbol viewBox="0 0 24 24" fill="currentColor" id="fullscreen-open"><path d="M7 14H5v5h5v-2H7v-3zm-2-4h2V7h3V5H5v5zm12 7h-3v2h5v-5h-2v3zM14 5v2h3v3h2V5h-5z"/></symbol><symbol viewBox="0 0 24 24" fill="currentColor" id="mini-player"><path d="M21 3H3c-1.1 0-2 .9-2 2v14c0 1.1.9 2 2 2h18c1.1 0 2-.9 2-2V5c0-1.1-.9-2-2-2zm0 16H3V5h18v14zm-10-7h9v6h-9z"/></symbol><symbol viewBox="0 0 24 24" fill="currentColor" id="pause"><path d="M14 19h4V5h-4M6 19h4V5H6v14Z"/></symbol><symbol viewBox="0 0 24 24" fill="currentColor" id="play"><path d="M8 5.14v14l11-7-11-7Z"/></symbol><symbol class="giconify giconify--logos" viewBox="0 0 256 257" fill="currentColor" id="vite"><defs><linearGradient id="ga" x1="-.828%" x2="57.636%" y1="7.652%" y2="78.411%"><stop offset="0%" stop-color="#41D1FF"/><stop offset="100%" stop-color="#BD34FE"/></linearGradient><linearGradient id="gb" x1="43.376%" x2="50.316%" y1="2.242%" y2="89.03%"><stop offset="0%" stop-color="#FFEA83"/><stop offset="8.333%" stop-color="#FFDD35"/><stop offset="100%" stop-color="#FFA800"/></linearGradient></defs><path d="M255.153 37.938 134.897 252.976c-2.483 4.44-8.862 4.466-11.382.048L.875 37.958c-2.746-4.814 1.371-10.646 6.827-9.67l120.385 21.517a6.537 6.537 0 0 0 2.322-.004l117.867-21.483c5.438-.991 9.574 4.796 6.877 9.62Z"/><path d="M185.432.063 96.44 17.501a3.268 3.268 0 0 0-2.634 3.014l-5.474 92.456a3.268 3.268 0 0 0 3.997 3.378l24.777-5.718c2.318-.535 4.413 1.507 3.936 3.838l-7.361 36.047c-.495 2.426 1.782 4.5 4.151 3.78l15.304-4.649c2.372-.72 4.652 1.36 4.15 3.788l-11.698 56.621c-.732 3.542 3.979 5.473 5.943 2.437l1.313-2.028 72.516-144.72c1.215-2.423-.88-5.186-3.54-4.672l-25.505 4.922c-2.396.462-4.435-1.77-3.759-4.114l16.646-57.705c.677-2.35-1.37-4.583-3.769-4.113Z"/></symbol><symbol viewBox="0 0 24 24" fill="currentColor" id="volume-high"><path d="M14 3.23v2.06c2.89.86 5 3.54 5 6.71s-2.11 5.84-5 6.7v2.07c4-.91 7-4.49 7-8.77 0-4.28-3-7.86-7-8.77M16.5 12c0-1.77-1-3.29-2.5-4.03V16c1.5-.71 2.5-2.24 2.5-4M3 9v6h4l5 5V4L7 9H3Z"/></symbol><symbol viewBox="0 0 24 24" fill="currentColor" id="volume-low"><path d="M5 9v6h4l5 5V4L9 9m9.5 3c0-1.77-1-3.29-2.5-4.03V16c1.5-.71 2.5-2.24 2.5-4Z"/></symbol><symbol viewBox="0 0 24 24" fill="currentColor" id="volume-muted"><path d="M12 4 9.91 6.09 12 8.18M4.27 3 3 4.27 7.73 9H3v6h4l5 5v-6.73l4.25 4.26c-.67.51-1.42.93-2.25 1.17v2.07c1.38-.32 2.63-.95 3.68-1.81L19.73 21 21 19.73l-9-9M19 12c0 .94-.2 1.82-.54 2.64l1.51 1.51A8.916 8.916 0 0 0 21 12c0-4.28-3-7.86-7-8.77v2.06c2.89.86 5 3.54 5 6.71m-2.5 0c0-1.77-1-3.29-2.5-4.03v2.21l2.45 2.45c.05-.2.05-.42.05-.63Z"/></symbol></svg>